<svg width="22" height="23" viewBox="0 0 22 23" fill="none" xmlns="http://www.w3.org/2000/svg">
<circle cx="11" cy="11.5" r="11" fill="#CDCEFF"/>
<path d="M15.0625 10.9331V8.60475C15.3676 8.4815 15.5834 8.18325 15.5834 7.83325C15.5834 7.37263 15.2106 7 14.75 7C14.2901 7 13.9166 7.37263 13.9166 7.83325C13.9166 8.18325 14.1324 8.48112 14.4375 8.60475V10.1559C13.5415 9.23513 12.333 8.66663 11 8.66663C9.667 8.66663 8.459 9.23513 7.5625 10.1562V8.60475C7.86762 8.48112 8.08325 8.18325 8.08325 7.83325C8.08325 7.37263 7.7105 7 7.25 7C6.79 7 6.41675 7.37263 6.41675 7.83325C6.41675 8.18325 6.63238 8.48112 6.9375 8.60475V10.9335C6.34975 11.8212 6 12.907 6 14.0833C6 15.6946 8.23875 17 11 17C13.7621 17 16 15.6946 16 14.0833C16 12.9065 15.65 11.8212 15.0625 10.9331ZM11 14.9165C9.27338 14.9165 7.875 14.5435 7.875 14.0833C7.875 13.1066 8.1135 12.2229 8.5 11.5833C10.1683 12.1594 11.957 12.1179 13.5 11.5833C13.8866 12.2229 14.125 13.1068 14.125 14.0833C14.125 14.5435 12.7257 14.9165 11 14.9165Z" fill="black"/>
<path d="M13.0834 13.5625C13.0834 13.8506 12.8506 14.0833 12.5625 14.0833C12.2744 14.0833 12.0416 13.8506 12.0416 13.5625C12.0416 13.2746 12.2744 13.0415 12.5625 13.0415C12.8506 13.0415 13.0834 13.2746 13.0834 13.5625Z" fill="black"/>
<path d="M9.95825 13.5625C9.95825 13.8506 9.72537 14.0833 9.4375 14.0833C9.14963 14.0833 8.91675 13.8506 8.91675 13.5625C8.91675 13.2746 9.14963 13.0415 9.4375 13.0415C9.72537 13.0415 9.95825 13.2746 9.95825 13.5625Z" fill="black"/>
</svg>