<svg width="39" height="39" viewBox="0 0 39 39" fill="none" xmlns="http://www.w3.org/2000/svg">
<rect x="0.5" y="0.5" width="38" height="38" rx="19" stroke="#F3F3FF"/>
<path d="M21.1497 19.5L26.1582 14.4915C26.6139 14.0358 26.6139 13.2975 26.1582 12.8418C25.7025 12.3861 24.9642 12.3861 24.5085 12.8418L19.5 17.8503L14.4915 12.8418C14.0358 12.3861 13.2975 12.3861 12.8418 12.8418C12.3861 13.2975 12.3861 14.0358 12.8418 14.4915L17.8503 19.5L12.8418 24.5085C12.3861 24.9642 12.3861 25.7025 12.8418 26.1582C13.0697 26.3861 13.3682 26.5 13.6667 26.5C13.9652 26.5 14.2637 26.3861 14.4915 26.1582L19.5 21.1497L24.5085 26.1582C24.7363 26.3861 25.0348 26.5 25.3333 26.5C25.6318 26.5 25.9303 26.3861 26.1582 26.1582C26.6139 25.7025 26.6139 24.9642 26.1582 24.5085L21.1497 19.5Z" fill="black"/>
</svg>