<svg width="24" height="24" viewBox="0 0 24 24" fill="none" xmlns="http://www.w3.org/2000/svg">
<path d="M21.75 9.4395V3.8514C22.4823 3.5556 23.0001 2.8398 23.0001 1.9998C23.0001 0.8943 22.1055 0 21 0C19.8963 0 18.9999 0.8943 18.9999 1.9998C18.9999 2.8398 19.5177 3.5547 20.25 3.8514V7.5741C18.0996 5.3643 15.1992 3.9999 12 3.9999C8.8008 3.9999 5.9016 5.3643 3.75 7.575V3.8514C4.4823 3.5547 4.9998 2.8398 4.9998 1.9998C4.9998 0.8943 4.1052 0 3 0C1.896 0 1.0002 0.8943 1.0002 1.9998C1.0002 2.8398 1.5177 3.5547 2.25 3.8514V9.4404C0.8394 11.571 0 14.1768 0 16.9998C0 20.8671 5.373 24 12 24C18.6291 24 24 20.8671 24 16.9998C24 14.1756 23.16 11.571 21.75 9.4395ZM12 18.9996C7.8561 18.9996 4.5 18.1044 4.5 16.9998C4.5 14.6559 5.0724 12.5349 6 10.9998C10.0038 12.3825 14.2968 12.2829 18 10.9998C18.9279 12.5349 19.5 14.6562 19.5 16.9998C19.5 18.1044 16.1418 18.9996 12 18.9996Z" fill="black"/>
<path d="M17.0001 15.75C17.0001 16.4415 16.4415 16.9998 15.75 16.9998C15.0585 16.9998 14.4999 16.4415 14.4999 15.75C14.4999 15.0591 15.0585 14.4996 15.75 14.4996C16.4415 14.4996 17.0001 15.0591 17.0001 15.75Z" fill="black"/>
<path d="M9.4998 15.75C9.4998 16.4415 8.9409 16.9998 8.25 16.9998C7.5591 16.9998 7.0002 16.4415 7.0002 15.75C7.0002 15.0591 7.5591 14.4996 8.25 14.4996C8.9409 14.4996 9.4998 15.0591 9.4998 15.75Z" fill="black"/>
</svg>