<svg width="15" height="15" viewBox="0 0 15 15" fill="none" xmlns="http://www.w3.org/2000/svg">
<path d="M9.26758 7.5L14.6338 2.13379C15.1221 1.64551 15.1221 0.854492 14.6338 0.366211C14.1455 -0.12207 13.3545 -0.12207 12.8662 0.366211L7.5 5.73242L2.13379 0.366211C1.64551 -0.12207 0.854492 -0.12207 0.366211 0.366211C-0.12207 0.854492 -0.12207 1.64551 0.366211 2.13379L5.73242 7.5L0.366211 12.8662C-0.12207 13.3545 -0.12207 14.1455 0.366211 14.6338C0.610352 14.8779 0.930176 15 1.25 15C1.56982 15 1.88965 14.8779 2.13379 14.6338L7.5 9.26758L12.8662 14.6338C13.1104 14.8779 13.4302 15 13.75 15C14.0698 15 14.3896 14.8779 14.6338 14.6338C15.1221 14.1455 15.1221 13.3545 14.6338 12.8662L9.26758 7.5Z" fill="black"/>
</svg>
