<svg width="22" height="20" viewBox="0 0 22 20" fill="none" xmlns="http://www.w3.org/2000/svg">
<path d="M10.957 0C4.9152 0 0 4.20533 0 9.375C0 11.5588 0.891258 13.6749 2.51329 15.3522C2.8343 16.6357 2.44466 17.9956 1.47787 18.9331C1.07362 19.3251 1.35949 20 1.93359 20C3.77025 20 5.54082 19.3024 6.85631 18.0719C8.15796 18.5223 9.53515 18.75 10.957 18.75C16.9989 18.75 22 14.5447 22 9.375C22 4.20533 16.9989 0 10.957 0ZM5.88672 11.25C4.82049 11.25 3.95312 10.4089 3.95312 9.375C3.95312 8.34108 4.82049 7.5 5.88672 7.5C6.95295 7.5 7.82031 8.34108 7.82031 9.375C7.82031 10.4089 6.95295 11.25 5.88672 11.25ZM11.043 11.25C9.97674 11.25 9.10938 10.4089 9.10938 9.375C9.10938 8.34108 9.97674 7.5 11.043 7.5C12.1092 7.5 12.9766 8.34108 12.9766 9.375C12.9766 10.4089 12.1092 11.25 11.043 11.25ZM16.1992 11.25C15.133 11.25 14.2656 10.4089 14.2656 9.375C14.2656 8.34108 15.133 7.5 16.1992 7.5C17.2654 7.5 18.1328 8.34108 18.1328 9.375C18.1328 10.4089 17.2654 11.25 16.1992 11.25Z" fill="black"/>
</svg>