<svg width="7" height="7" viewBox="0 0 7 7" fill="none" xmlns="http://www.w3.org/2000/svg">
<path d="M3.186 6.233V4.46C3.186 4.346 3.192 4.238 3.204 4.136C3.222 4.034 3.252 3.935 3.294 3.839C3.174 3.989 3.015 4.124 2.817 4.244L1.269 5.135L0.873 4.46L2.421 3.56C2.637 3.434 2.856 3.362 3.078 3.344C2.958 3.332 2.844 3.311 2.736 3.281C2.634 3.245 2.529 3.191 2.421 3.119L0.864 2.21L1.26 1.535L2.817 2.435C3.027 2.555 3.198 2.711 3.33 2.903C3.276 2.795 3.237 2.687 3.213 2.579C3.195 2.465 3.186 2.348 3.186 2.228V0.446H3.978V2.219C3.978 2.465 3.936 2.681 3.852 2.867C3.918 2.777 3.99 2.699 4.068 2.633C4.152 2.567 4.245 2.501 4.347 2.435L5.895 1.544L6.291 2.219L4.743 3.119C4.641 3.185 4.539 3.236 4.437 3.272C4.341 3.308 4.239 3.332 4.131 3.344C4.239 3.356 4.341 3.38 4.437 3.416C4.539 3.446 4.641 3.494 4.743 3.56L6.3 4.469L5.904 5.144L4.347 4.244C4.239 4.178 4.143 4.112 4.059 4.046C3.975 3.98 3.9 3.899 3.834 3.803C3.93 4.001 3.978 4.217 3.978 4.451V6.233H3.186Z" fill="#FF0000"/>
</svg>
